<svg xmlns="http://www.w3.org/2000/svg" width="26.106" height="25.018" viewBox="0 0 26.106 25.018">
  <path id="github" d="M13.053.5A12.94,12.94,0,0,0,0,13.327,12.848,12.848,0,0,0,8.925,25.5c.653.121.892-.276.892-.617,0-.3-.011-1.112-.016-2.181-3.631.773-4.4-1.721-4.4-1.721A3.419,3.419,0,0,0,3.952,19.1c-1.182-.8.091-.779.091-.779a2.731,2.731,0,0,1,2,1.322,2.811,2.811,0,0,0,3.8,1.067A2.716,2.716,0,0,1,10.671,19c-2.9-.321-5.946-1.424-5.946-6.338A4.9,4.9,0,0,1,6.068,9.216a4.488,4.488,0,0,1,.114-3.395s1.093-.344,3.59,1.315a12.515,12.515,0,0,1,6.526,0c2.48-1.659,3.573-1.315,3.573-1.315A4.612,4.612,0,0,1,20,9.216a4.92,4.92,0,0,1,1.338,3.442c0,4.927-3.051,6.012-5.955,6.327a3.043,3.043,0,0,1,.881,2.373c0,1.716-.016,3.1-.016,3.512,0,.336.228.737.9.609a12.809,12.809,0,0,0,8.959-12.153A12.942,12.942,0,0,0,13.053.5Z" transform="translate(0 -0.5)" fill="#fff"/>
</svg>
