<svg xmlns="http://www.w3.org/2000/svg" width="137.604" height="86" viewBox="0 0 137.604 86">
  <g id="agreement" transform="translate(0 -96.003)">
    <g id="Group_24" data-name="Group 24" transform="translate(20.061 102.092)">
      <g id="Group_23" data-name="Group 23">
        <path id="Path_289" data-name="Path 289" d="M163.231,171.537c-2.7-5.63-12.361-13.445-21.7-21-5.206-4.208-10.125-8.187-13.262-11.324a2.866,2.866,0,0,0-3-.671c-1.932.7-3.125,1.238-4.065,1.657a9.48,9.48,0,0,1-3.847,1.055,2.866,2.866,0,0,0-2.1,1.256c-4.054,6.06-8.251,5.544-11.054,4.6-.894-.3-1.055-.682-1.141-1.049-.6-2.517,2.42-8.377,6.335-12.293,9.317-9.323,14.122-11.656,24.27-7.121,11.513,5.149,23.049,9.179,23.163,9.219a2.869,2.869,0,1,0,1.886-5.418c-.115-.04-11.421-3.991-22.7-9.042-13.147-5.877-20.36-2.007-30.663,8.3-3.922,3.922-9.248,11.857-7.872,17.676a7.091,7.091,0,0,0,4.925,5.166c6.5,2.144,12.424.092,16.839-5.768a14.473,14.473,0,0,0,4.306-1.365c.539-.241,1.17-.522,2.007-.86,3.28,3.079,7.706,6.662,12.367,10.429,8.428,6.817,17.986,14.546,20.136,19.018a3.359,3.359,0,0,1-.854,4.306c-1.135.975-2.689,1.284-3.532.694a2.866,2.866,0,0,0-4.478,2.666c.195,1.823-1.474,2.867-2.2,3.228-1.835.929-3.75.768-4.466.1a2.866,2.866,0,0,0-4.81,1.829,5.447,5.447,0,0,1-3.383,4.392,3.023,3.023,0,0,1-3.291-.51,2.9,2.9,0,0,0-2.62-.665,2.863,2.863,0,0,0-2.012,1.806c-.109.287-.356.975-3.039.975a16.508,16.508,0,0,1-7.023-2.4c-2.012-1.324-14.632-10.739-25.531-19.867-1.531-1.29-4.18-4.054-6.519-6.5-2.076-2.167-3.973-4.134-4.948-4.959a2.868,2.868,0,0,0-3.7,4.38c.889.751,2.609,2.569,4.507,4.547,2.557,2.672,5.2,5.435,6.978,6.926,10.676,8.939,23.507,18.588,26.064,20.268,2.11,1.388,6.657,3.337,10.177,3.337a9.867,9.867,0,0,0,6.507-1.915,8.924,8.924,0,0,0,6.519-.069,11.293,11.293,0,0,0,5.969-5.51,11.086,11.086,0,0,0,7.2-1.038,9.727,9.727,0,0,0,4.787-5,9.376,9.376,0,0,0,6.576-2.356A9.115,9.115,0,0,0,163.231,171.537Z" transform="translate(-74.642 -118.658)" fill="#89b1cc"/>
      </g>
    </g>
    <g id="Group_26" data-name="Group 26" transform="translate(28.667 107.469)">
      <g id="Group_25" data-name="Group 25">
        <path id="Path_290" data-name="Path 290" d="M135.333,138.663h-25.8a2.867,2.867,0,0,0,0,5.734h25.8a2.867,2.867,0,1,0,0-5.734Z" transform="translate(-106.666 -138.663)" fill="#89b1cc"/>
      </g>
    </g>
    <g id="Group_28" data-name="Group 28" transform="translate(103.421 147.598)">
      <g id="Group_27" data-name="Group 27" transform="translate(0 0)">
        <path id="Path_291" data-name="Path 291" d="M398.439,289.25a2.859,2.859,0,0,0-3.979-.78l-8.382,5.63a2.867,2.867,0,0,0,3.2,4.759l8.382-5.63A2.869,2.869,0,0,0,398.439,289.25Z" transform="translate(-384.811 -287.977)" fill="#89b1cc"/>
      </g>
    </g>
    <g id="Group_30" data-name="Group 30" transform="translate(77.406 144.733)">
      <g id="Group_29" data-name="Group 29">
        <path id="Path_292" data-name="Path 292" d="M309.862,295.135c-2.052-1.617-11.232-11.014-16.908-16.931a2.867,2.867,0,0,0-4.14,3.968c1.474,1.536,14.471,15.085,17.493,17.47a2.855,2.855,0,0,0,1.772.614,2.9,2.9,0,0,0,2.259-1.1A2.865,2.865,0,0,0,309.862,295.135Z" transform="translate(-288.016 -277.317)" fill="#89b1cc"/>
      </g>
    </g>
    <g id="Group_32" data-name="Group 32" transform="translate(68.803 153.338)">
      <g id="Group_31" data-name="Group 31">
        <path id="Path_293" data-name="Path 293" d="M275,324.3c-3.434-2.746-12.063-11.914-14.013-14.036a2.869,2.869,0,1,0-4.226,3.882c.1.109,10.4,11.226,14.655,14.632A2.868,2.868,0,0,0,275,324.3Z" transform="translate(-256.005 -309.337)" fill="#89b1cc"/>
      </g>
    </g>
    <g id="Group_34" data-name="Group 34" transform="translate(57.337 159.065)">
      <g id="Group_33" data-name="Group 33">
        <path id="Path_294" data-name="Path 294" d="M232.393,345.654c-4.088-3.446-12.453-12.35-14.087-14.1a2.868,2.868,0,1,0-4.191,3.916c2.351,2.517,10.355,11,14.58,14.569a2.869,2.869,0,0,0,3.7-4.386Z" transform="translate(-213.343 -330.644)" fill="#89b1cc"/>
      </g>
    </g>
    <g id="Group_36" data-name="Group 36" transform="translate(0 96.003)">
      <g id="Group_35" data-name="Group 35">
        <path id="Path_295" data-name="Path 295" d="M33.506,102.521c-4.914-4.656-24.562-6.164-30.468-6.513A2.864,2.864,0,0,0,0,98.868v51.6a2.868,2.868,0,0,0,2.867,2.867h17.2a2.864,2.864,0,0,0,2.723-1.978c.418-1.284,10.3-31.6,11.6-46.51A2.852,2.852,0,0,0,33.506,102.521ZM17.974,147.6H5.733V101.942c9.214.728,19.156,2.311,22.768,4.065C26.982,118.563,20.107,140.872,17.974,147.6Z" transform="translate(0 -96.004)" fill="#89b1cc"/>
      </g>
    </g>
    <g id="Group_38" data-name="Group 38" transform="translate(97.571 101.735)">
      <g id="Group_37" data-name="Group 37">
        <path id="Path_296" data-name="Path 296" d="M400.212,117.33c-22.51,0-35,5.762-35.519,6a2.852,2.852,0,0,0-1.531,1.783,2.89,2.89,0,0,0,.315,2.328c3.543,5.7,14.638,37.388,16.77,45.117a2.866,2.866,0,0,0,2.764,2.1h17.2a2.868,2.868,0,0,0,2.867-2.867V120.2A2.864,2.864,0,0,0,400.212,117.33Zm-2.867,51.6H385.156c-2.718-8.853-10.745-31.936-15.222-41.476,4.375-1.485,13.772-4.036,27.412-4.357Z" transform="translate(-363.046 -117.33)" fill="#89b1cc"/>
      </g>
    </g>
  </g>
</svg>
