<svg xmlns="http://www.w3.org/2000/svg" width="102.366" height="102.364" viewBox="0 0 102.366 102.364">
  <g id="book" transform="translate(0 -0.006)">
    <g id="Group_54" data-name="Group 54" transform="translate(0 0.006)">
      <path id="Path_313" data-name="Path 313" d="M96.368,54.7V45.191a3,3,0,0,0-3-3,90.471,90.471,0,0,0-17.429,1.59,27.077,27.077,0,0,0-11.259-6.519,20.993,20.993,0,1,0-27,0,27.082,27.082,0,0,0-11.259,6.519A90.486,90.486,0,0,0,9,42.192a3,3,0,0,0-3,3V54.7a9.011,9.011,0,0,0-6,8.481v6a9.011,9.011,0,0,0,6,8.481v9.513a3,3,0,0,0,3,3c15.681,0,28.557,3.715,40.523,11.692a3.009,3.009,0,0,0,3.327,0c11.966-7.977,24.842-11.692,40.523-11.692a3,3,0,0,0,3-3V77.664a9.011,9.011,0,0,0,6-8.481v-6A9.012,9.012,0,0,0,96.368,54.7ZM36.188,21.2a15,15,0,1,1,15,15A15.113,15.113,0,0,1,36.188,21.2ZM9,72.182a3,3,0,0,1-3-3v-6a3,3,0,1,1,6,0v6A3,3,0,0,1,9,72.182Zm39.187,21.81C37.3,87.766,25.614,84.619,12,84.221V77.664a9.011,9.011,0,0,0,6-8.481v-6A9.011,9.011,0,0,0,12,54.7V48.232c14.092.4,25.418,3.723,36.188,10.58Zm3-40.376A71.274,71.274,0,0,0,33.735,45.6a21.037,21.037,0,0,1,11.45-3.4h12a21.037,21.037,0,0,1,11.45,3.4A71.27,71.27,0,0,0,51.183,53.616ZM90.37,84.221c-13.618.4-25.3,3.545-36.188,9.771V58.814c10.77-6.858,22.1-10.178,36.188-10.582V54.7a9.011,9.011,0,0,0-6,8.481v6a9.011,9.011,0,0,0,6,8.481Zm6-15.038a3,3,0,0,1-6,0v-6a3,3,0,1,1,6,0Z" transform="translate(0 -0.006)" fill="#89b1cc"/>
    </g>
  </g>
</svg>
