<svg xmlns="http://www.w3.org/2000/svg" width="95.97" height="102.374" viewBox="0 0 95.97 102.374">
  <path id="box" d="M111.122,22.594,64.64.15a1.492,1.492,0,0,0-1.3,0L16.854,22.594A1.5,1.5,0,0,0,16,23.938v54.5a1.5,1.5,0,0,0,.854,1.346l46.482,22.444a1.492,1.492,0,0,0,1.3,0L111.122,79.78a1.5,1.5,0,0,0,.848-1.352V23.94a1.5,1.5,0,0,0-.848-1.346ZM63.988,3.165,107.021,23.94,94.546,29.96a1.51,1.51,0,0,0-.254-.16L51.551,9.168Zm-15.822,7.7L91.135,31.608l-8.8,4.249L39.382,15.12ZM92.141,34.457v15.7l-8.22,3.965V38.42Zm16.836,43.037L65.494,98.489V47.32l16.138-7.8q-.8-1.148-1.582-2.3L63.988,44.713l-4.159-2a1.5,1.5,0,1,0-1.3,2.7l3.963,1.914V98.485L19,77.495V26.327l39.52,19.079,1.3-2.7L20.955,23.938l14.9-7.2L80.9,38.494a.138.138,0,0,0,.022.026v18a1.5,1.5,0,0,0,2.151,1.35l11.219-5.415A1.5,1.5,0,0,0,95.14,51.1V33.006l13.837-6.676Z" transform="translate(-16 0)" fill="#89b1cc"/>
</svg>
