<svg xmlns="http://www.w3.org/2000/svg" width="85.312" height="102.374" viewBox="0 0 85.312 102.374">
  <g id="database" transform="translate(-42.666)">
    <g id="Group_47" data-name="Group 47" transform="translate(42.666)">
      <g id="Group_46" data-name="Group 46">
        <path id="Path_306" data-name="Path 306" d="M85.323,0C61.406,0,42.667,8.433,42.667,19.2s18.739,19.2,42.656,19.2,42.656-8.433,42.656-19.2S109.24,0,85.323,0Zm0,34.125c-22.625,0-38.39-7.87-38.39-14.93S62.7,4.266,85.323,4.266s38.39,7.87,38.39,14.93S107.948,34.125,85.323,34.125Z" transform="translate(-42.667)" fill="#89b1cc"/>
      </g>
    </g>
    <g id="Group_49" data-name="Group 49" transform="translate(42.666 38.39)">
      <g id="Group_48" data-name="Group 48">
        <path id="Path_307" data-name="Path 307" d="M125.845,192a2.134,2.134,0,0,0-2.133,2.133c0,7.06-15.766,14.93-38.39,14.93s-38.39-7.87-38.39-14.93a2.133,2.133,0,0,0-4.266,0c0,10.762,18.739,19.2,42.656,19.2s42.656-8.433,42.656-19.2A2.133,2.133,0,0,0,125.845,192Z" transform="translate(-42.666 -192)" fill="#89b1cc"/>
      </g>
    </g>
    <g id="Group_51" data-name="Group 51" transform="translate(42.666 59.718)">
      <g id="Group_50" data-name="Group 50">
        <path id="Path_308" data-name="Path 308" d="M125.845,298.666a2.134,2.134,0,0,0-2.133,2.133c0,7.059-15.766,14.929-38.39,14.929s-38.39-7.87-38.39-14.93a2.133,2.133,0,1,0-4.266,0c0,10.762,18.739,19.2,42.656,19.2s42.656-8.433,42.656-19.2A2.133,2.133,0,0,0,125.845,298.666Z" transform="translate(-42.666 -298.666)" fill="#89b1cc"/>
      </g>
    </g>
    <g id="Group_53" data-name="Group 53" transform="translate(42.666 17.062)">
      <g id="Group_52" data-name="Group 52">
        <path id="Path_309" data-name="Path 309" d="M125.846,85.333a2.134,2.134,0,0,0-2.133,2.133V151.45c0,7.06-15.766,14.93-38.39,14.93s-38.39-7.87-38.39-14.93V87.466a2.133,2.133,0,1,0-4.266,0V151.45c0,10.762,18.739,19.2,42.656,19.2s42.656-8.433,42.656-19.2V87.466A2.134,2.134,0,0,0,125.846,85.333Z" transform="translate(-42.667 -85.333)" fill="#89b1cc"/>
      </g>
    </g>
  </g>
</svg>
