<svg id="emoji" xmlns="http://www.w3.org/2000/svg" width="102.374" height="102.374" viewBox="0 0 102.374 102.374">
  <g id="Group_56" data-name="Group 56" transform="translate(0 0)">
    <g id="Group_55" data-name="Group 55">
      <path id="Path_316" data-name="Path 316" d="M87.382,14.992A51.187,51.187,0,1,0,14.992,87.382,51.187,51.187,0,1,0,87.382,14.992ZM51.187,96.281A45.093,45.093,0,1,1,96.281,51.187,45.145,45.145,0,0,1,51.187,96.281Z" transform="translate(0 0)" fill="#89b1cc"/>
    </g>
  </g>
  <g id="Group_58" data-name="Group 58" transform="translate(21.125 33.928)">
    <g id="Group_57" data-name="Group 57">
      <path id="Path_317" data-name="Path 317" d="M124.639,173.423a12.811,12.811,0,0,0-18.1,0,3.047,3.047,0,0,0,4.309,4.309,6.711,6.711,0,0,1,9.48,0,3.047,3.047,0,1,0,4.309-4.309Z" transform="translate(-105.65 -169.68)" fill="#89b1cc"/>
    </g>
  </g>
  <g id="Group_60" data-name="Group 60" transform="translate(61.367 33.928)">
    <g id="Group_59" data-name="Group 59">
      <path id="Path_318" data-name="Path 318" d="M325.9,173.423a12.811,12.811,0,0,0-18.1,0,3.047,3.047,0,0,0,4.309,4.309,6.711,6.711,0,0,1,9.48,0,3.047,3.047,0,0,0,4.309-4.309Z" transform="translate(-306.912 -169.68)" fill="#89b1cc"/>
    </g>
  </g>
  <g id="Group_62" data-name="Group 62" transform="translate(21.125 53.422)">
    <g id="Group_61" data-name="Group 61">
      <path id="Path_319" data-name="Path 319" d="M162.729,267.175H108.7a3.047,3.047,0,0,0-3.047,3.047,30.062,30.062,0,0,0,60.124,0A3.047,3.047,0,0,0,162.729,267.175ZM135.713,294.19a24,24,0,0,1-23.776-20.922h47.552A24,24,0,0,1,135.713,294.19Z" transform="translate(-105.651 -267.175)" fill="#89b1cc"/>
    </g>
  </g>
</svg>
