<svg xmlns="http://www.w3.org/2000/svg" width="64.128" height="102.403" viewBox="0 0 64.128 102.403">
  <g id="interactive" transform="translate(-23.913 0.033)">
    <path id="Path_320" data-name="Path 320" d="M83.4,58.247a6.817,6.817,0,0,0-4.988,1.53,6.728,6.728,0,0,0-10.742-3.271,6.727,6.727,0,0,0-10.438-3.588v-25.4a10.024,10.024,0,1,0-13.563,0V52.358l-4.308,3.495a21.655,21.655,0,0,0-8.041,16.882,21.874,21.874,0,0,0,2.156,9.438l10.33,21.436a1.4,1.4,0,0,0,1.261.792H88.125a1.4,1.4,0,0,0,1.4-1.4V65.229A6.959,6.959,0,0,0,83.4,58.247ZM43.226,20.158a7.225,7.225,0,1,1,13.634,3.336,6.742,6.742,0,0,0-12.853-.066,7.191,7.191,0,0,1-.781-3.27Zm43.5,81.446H45.949L36,80.957a18.943,18.943,0,0,1,5.128-22.932l2.541-2.063V78.848a1.4,1.4,0,1,0,2.8,0V25.538a3.992,3.992,0,0,1,1.3-2.947,3.94,3.94,0,0,1,2.231-1.012,4.069,4.069,0,0,1,.842,0,4.141,4.141,0,0,1,3.587,4.194V58.4a1.4,1.4,0,1,0,2.8,0,3.992,3.992,0,0,1,1.3-2.947,3.95,3.95,0,0,1,3.073-1.016A4.14,4.14,0,0,1,65.2,58.634V61.74a1.4,1.4,0,0,0,2.8,0,3.982,3.982,0,0,1,4.378-3.963,4.14,4.14,0,0,1,3.586,4.194v3.023a1.4,1.4,0,0,0,2.8,0,3.982,3.982,0,0,1,4.374-3.959,4.14,4.14,0,0,1,3.586,4.194Z" transform="translate(-1.483 -2.03)" fill="#89b1cc"/>
    <path id="Path_321" data-name="Path 321" d="M39.163,31.474a1.4,1.4,0,0,0,1.98-1.98,14.011,14.011,0,0,1,0-19.791,1.4,1.4,0,0,0-1.98-1.98A16.813,16.813,0,0,0,39.163,31.474Z" transform="translate(-2.069 -1.47)" fill="#89b1cc"/>
    <path id="Path_322" data-name="Path 322" d="M67.507,29.5a1.4,1.4,0,0,0,1.98,1.98,16.813,16.813,0,0,0,0-23.75,1.4,1.4,0,0,0-1.98,1.978,14.011,14.011,0,0,1,0,19.792Z" transform="translate(-8.644 -1.477)" fill="#89b1cc"/>
    <path id="Path_323" data-name="Path 323" d="M32.233,36.263a1.4,1.4,0,0,0,.989-2.389,22.293,22.293,0,0,1,0-31.491A1.4,1.4,0,1,0,31.244.4a25.1,25.1,0,0,0,0,35.45,1.4,1.4,0,0,0,.989.41Z" transform="translate(0 0)" fill="#89b1cc"/>
    <path id="Path_324" data-name="Path 324" d="M74.821,33.88a1.4,1.4,0,1,0,1.98,1.98A25.1,25.1,0,0,0,76.8.41a1.4,1.4,0,1,0-1.98,1.98A22.294,22.294,0,0,1,74.821,33.88Z" transform="translate(-10.107 -0.007)" fill="#89b1cc"/>
  </g>
</svg>
