<svg xmlns="http://www.w3.org/2000/svg" width="77.041" height="102.672" viewBox="0 0 77.041 102.672">
  <g id="javascript" transform="translate(-55.708 0)">
    <g id="Group_45" data-name="Group 45" transform="translate(55.708 0)">
      <path id="Path_299" data-name="Path 299" d="M130.75,26.041c-.217-6.568-.337-15.443-.273-22.015a2.868,2.868,0,0,0-.111-.794,2.481,2.481,0,0,0-2.547-2.9C104.667.943,81.519.036,58.367,0a2.588,2.588,0,0,0-2.532,3.175,2.829,2.829,0,0,0-.127.852c.349,27.627,1.3,67.323,1.329,94.954a2.584,2.584,0,0,0,.457,1.522,2.4,2.4,0,0,0,2.535,2.168c10.007-.249,20.018-.409,30.017-.9,8.913-.437,20.019.148,28.537-2.759a21.476,21.476,0,0,0,8.027-4.758c4.228-4.03,5.67-9.44,6.036-15.141.349-5.477-.3-11.221-.424-16.266C131.893,49.814,131.178,39.072,130.75,26.041ZM116.1,75.319c-1.63.009-3.2,1.281-2.477,3.236,1.465,3.931,2.134,8.812-.117,12.572-2.723,4.547-7.581,4.423-12.2,5.006-2.825.356-5.828.167-8.677.248-2.217.062-30.281.746-30.281.856-.066-26.6-.945-65.259-1.3-91.853,21.376.092,42.746.827,64.122.37-.082,21.835,1.854,53.4,1.969,70.656a27.717,27.717,0,0,0-10.281-1.251A2.814,2.814,0,0,0,116.1,75.319ZM118.188,93.5c2.147-3.658,2.682-8.146,1.567-13.012a21.335,21.335,0,0,1,7.547,1.623c.012.029.019.061.029.091C126.547,87.965,122.9,91.5,118.188,93.5Z" transform="translate(-55.708 0)" fill="#89b1cc"/>
      <path id="Path_300" data-name="Path 300" d="M150.03,138.641c-5.514.2-11.028.384-16.548.4-3.471.009-3.471,5.392,0,5.383,2.332-.006,4.66-.055,6.991-.111a45.951,45.951,0,0,1,1.563,12.073c-.031,1.494-.161,3.5-1.172,4.707-1.159,1.38-3.874-.165-5.026-.75-3.088-1.57-5.812,3.074-2.717,4.647,5.59,2.843,11.594,2.7,13.683-4.076,1.6-5.182.452-11.464-.825-16.758,1.351-.044,2.7-.082,4.052-.131C153.492,143.9,153.5,138.517,150.03,138.641Z" transform="translate(-113.586 -106.744)" fill="#89b1cc"/>
      <path id="Path_301" data-name="Path 301" d="M240.954,142.256c-.52-1.078-.28-1.883-.645-1.63,1.569-1.1,4.768-.366,6.474-.16,3.441.414,3.4-4.974,0-5.383-3.6-.432-9.081-.923-11.12,2.924-1.639,3.09.39,6.755,1.975,9.411,1.953,3.273,4.4,6.263,6.051,9.712a9.58,9.58,0,0,1,.39,1.233c-1.674.879-5.258-.142-6.948-.455-3.393-.629-4.842,4.561-1.431,5.19,3.65.676,9.681,2.089,12.572-1.221,2.474-2.833.612-6.679-.984-9.433C245.283,148.985,242.7,145.871,240.954,142.256Z" transform="translate(-192.794 -103.784)" fill="#89b1cc"/>
    </g>
  </g>
</svg>
