<svg id="linkedin" xmlns="http://www.w3.org/2000/svg" width="19.579" height="19.579" viewBox="0 0 19.579 19.579">
  <path id="Path_204" data-name="Path 204" d="M21.138,20.974h0V13.793c0-3.513-.756-6.219-4.863-6.219a4.263,4.263,0,0,0-3.84,2.11h-.057V7.9H8.489V20.973h4.055V14.5c0-1.7.323-3.352,2.434-3.352,2.079,0,2.11,1.945,2.11,3.461v6.364Z" transform="translate(-1.564 -1.395)" fill="#3b7daa"/>
  <path id="Path_205" data-name="Path 205" d="M.4,7.977H4.455V21.049H.4Z" transform="translate(-0.073 -1.469)" fill="#3b7daa"/>
  <path id="Path_206" data-name="Path 206" d="M2.351,0A2.362,2.362,0,1,0,4.7,2.351,2.352,2.352,0,0,0,2.351,0Z" fill="#3b7daa"/>
</svg>
