<svg xmlns="http://www.w3.org/2000/svg" width="102.374" height="102.374" viewBox="0 0 102.374 102.374">
  <path id="list_2_" data-name="list (2)" d="M39.97,71.962h13.6v8H39.97Zm-14.976-1a5,5,0,1,0,5,5A5,5,0,0,0,24.994,70.962ZM80.36,46.568H39.97v8H80.34v-8Zm-55.366-1a5,5,0,1,0,5,5A5,5,0,0,0,24.994,45.569ZM80.36,22.594H39.97v8H80.34v-8Zm-55.366-1a5,5,0,1,0,5,5A5,5,0,0,0,24.994,21.595ZM8,90.357V12a4.011,4.011,0,0,1,4-4h78.36a4.011,4.011,0,0,1,4,4V57.166h8V12a12.007,12.007,0,0,0-12-12H12A12.007,12.007,0,0,0,0,12v78.36a12.007,12.007,0,0,0,12,12H58.165v-8H12A4.011,4.011,0,0,1,8,90.357Zm88.718,12.017-7.958-7.958c-2.059,1.66-4.119,3.3-6.178,4.959q-7.5-16.286-15-32.592,15.686,7.408,31.392,14.8c-1.48,2.439-2.959,4.879-4.419,7.318l7.818,7.818Z" fill="#89b1cc"/>
</svg>
