<svg xmlns="http://www.w3.org/2000/svg" width="77.983" height="102.374" viewBox="0 0 77.983 102.374">
  <g id="motion" transform="translate(-60.994)">
    <g id="Group_42" data-name="Group 42" transform="translate(87.99)">
      <g id="Group_41" data-name="Group 41">
        <path id="Path_297" data-name="Path 297" d="M208,0a12,12,0,1,0,12,12A12.011,12.011,0,0,0,208,0Zm0,18a6,6,0,1,1,6-6A6.005,6.005,0,0,1,208,18Z" transform="translate(-196.008)" fill="#89b1cc"/>
      </g>
    </g>
    <g id="Group_44" data-name="Group 44" transform="translate(60.994 23.994)">
      <g id="Group_43" data-name="Group 43">
        <path id="Path_298" data-name="Path 298" d="M129.979,120H69.994a9,9,0,0,0,0,18H90.989v6.4L64.6,164.189a9,9,0,1,0,10.8,14.395l15.6-11.7v22.5a9,9,0,0,0,18,0V138h20.995a9,9,0,0,0,0-18Zm0,12H105.985a3,3,0,0,0-3,3v54.386a3,3,0,0,1-6,0V160.889a3,3,0,0,0-4.8-2.4l-20.4,15.3a3,3,0,0,1-3.6-4.8l27.594-20.7a3,3,0,0,0,1.2-2.4V135a3,3,0,0,0-3-3H69.994a3,3,0,1,1,0-6h59.985a3,3,0,0,1,0,6Z" transform="translate(-60.994 -120)" fill="#89b1cc"/>
      </g>
    </g>
  </g>
</svg>
