<svg id="segment" xmlns="http://www.w3.org/2000/svg" width="102.374" height="102.374" viewBox="0 0 102.374 102.374">
  <path id="Path_314" data-name="Path 314" d="M51.187,0a51.187,51.187,0,1,0,51.187,51.187A51.187,51.187,0,0,0,51.187,0ZM98.962,51.187a47.478,47.478,0,0,1-5.588,22.391l-24-13.86h19.35V49.481a15.25,15.25,0,0,0-7.7-13.309l-.6-.341h4.891V25.593a11.944,11.944,0,0,0-23.887,0V35.831h4.886l-.6.341a15.388,15.388,0,0,0-7.7,13.309v3.676L52.893,50.2V3.455A47.826,47.826,0,0,1,98.962,51.187ZM66.543,22.181v8.531a6.684,6.684,0,0,0,.243,1.706H64.837V25.594a8.531,8.531,0,0,1,17.062,0v6.825H79.951a6.684,6.684,0,0,0,.243-1.706V22.181Zm10.237,3.412v5.119a3.412,3.412,0,0,1-6.825,0V25.594ZM68.9,35.831a6.7,6.7,0,0,0,8.934,0H79.6l-6.231,6.142-6.231-6.142Zm4.467,10.92L80.4,39.823a11.514,11.514,0,0,1,1.413,1.194,11.935,11.935,0,0,1,3.5,8.463v6.825H81.9V49.481H78.487v6.825H68.25V49.481H64.837v6.825H63.472l-2.047-1.177V49.481a11.964,11.964,0,0,1,4.912-9.647ZM20.475,14.631V25.594a6.825,6.825,0,0,0,13.65,0v-1.95a8.5,8.5,0,0,0,6.361-6.218l.943-3.776H21.688A47.507,47.507,0,0,1,49.481,3.455V50.206l-5.119,2.957v-8.8A11.957,11.957,0,0,0,32.419,32.419H22.181A11.957,11.957,0,0,0,10.238,44.362V59.718H33L9,73.575A47.679,47.679,0,0,1,20.475,14.631Zm11.734,5.844H23.887V17.062H37.025A5.109,5.109,0,0,1,32.209,20.475Zm-8.321,3.412h6.825v1.706a3.412,3.412,0,0,1-6.825,0ZM38.9,56.306H37.537V44.362H34.125V56.306H20.475V44.362H17.062V56.306H13.65V44.362a8.542,8.542,0,0,1,8.531-8.531h1.48l-1.57,12.56L27.3,53.6l5.209-5.209-1.57-12.56h1.48a8.542,8.542,0,0,1,8.531,8.531V55.127ZM27.5,35.831l1.416,11.328L27.3,48.774l-1.616-1.616L27.1,35.831ZM44.362,98.467V88.724H40.95v9.122q-1.73-.378-3.412-.882V88.724a8.542,8.542,0,0,1,8.531-8.531h1.48l-1.57,12.56,5.209,5.209L56.4,92.753l-1.57-12.56h1.48a8.542,8.542,0,0,1,8.531,8.531v8.239q-1.681.512-3.412.882V88.724H58.012v9.743a47.31,47.31,0,0,1-13.65,0Zm7.025-18.274L52.8,91.521l-1.616,1.616-1.616-1.616,1.416-11.328ZM68.25,95.8V88.724A11.957,11.957,0,0,0,56.306,76.781H46.068A11.957,11.957,0,0,0,34.125,88.724V95.8A48.03,48.03,0,0,1,10.713,76.525L51.187,53.157,91.66,76.533A48.022,48.022,0,0,1,68.25,95.8Zm0,0" fill="#89b1cc"/>
  <path id="Path_315" data-name="Path 315" d="M267.062,358.531a8.531,8.531,0,1,0-8.531,8.531A8.531,8.531,0,0,0,267.062,358.531Zm-8.531,5.119a5.119,5.119,0,1,1,5.119-5.119A5.119,5.119,0,0,1,258.531,363.65Zm0,0" transform="translate(-207.344 -290.282)" fill="#89b1cc"/>
</svg>
