<svg xmlns="http://www.w3.org/2000/svg" width="117.003" height="102.374" viewBox="0 0 117.003 102.374">
  <g id="user_1_" data-name="user (1)" transform="translate(0 -0.008)">
    <path id="Path_302" data-name="Path 302" d="M109.707,48.757a24.375,24.375,0,1,1,24.375-24.374A24.4,24.4,0,0,1,109.707,48.757Zm0-41.437A17.062,17.062,0,1,0,126.77,24.383,17.081,17.081,0,0,0,109.707,7.32Zm0,0" transform="translate(-65.832)" fill="#89b1cc"/>
    <path id="Path_303" data-name="Path 303" d="M84.093,299.883H3.656A3.658,3.658,0,0,1,0,296.226V279.164a23.183,23.183,0,0,1,23.156-23.156H64.594a23.183,23.183,0,0,1,23.156,23.156v17.063A3.658,3.658,0,0,1,84.093,299.883ZM7.312,292.57H80.437V279.164A15.862,15.862,0,0,0,64.594,263.32H23.156A15.862,15.862,0,0,0,7.312,279.164Zm0,0" transform="translate(0 -197.5)" fill="#89b1cc"/>
    <path id="Path_304" data-name="Path 304" d="M343.761,193.988H302.324a3.656,3.656,0,0,1,0-7.312h41.437a3.656,3.656,0,0,1,0,7.312Zm0,0" transform="translate(-230.418 -144.012)" fill="#89b1cc"/>
    <path id="Path_305" data-name="Path 305" d="M398.327,147.625a3.658,3.658,0,0,1-2.584-6.245l16.916-16.916-16.916-16.916a3.657,3.657,0,1,1,5.173-5.172l19.5,19.5a3.658,3.658,0,0,1,0,5.173l-19.5,19.5A3.634,3.634,0,0,1,398.327,147.625Zm0,0" transform="translate(-304.484 -78.149)" fill="#89b1cc"/>
  </g>
</svg>
