<svg xmlns="http://www.w3.org/2000/svg" width="101.321" height="102.25" viewBox="0 0 101.321 102.25">
  <g id="ux" transform="translate(-0.003 0.003)">
    <path id="Path_310" data-name="Path 310" d="M87.54,16.165c-.38-.4-2.816-2.852-2.816-2.852l2.816,2.852A52,52,0,0,0,37.654,2.723,51.468,51.468,0,0,0,2.022,66.593a52.141,52.141,0,0,0,32.99,34.1A51.229,51.229,0,0,0,93.843,80.3c.22-.336.44-.674.648-1,.6-.953-2.854-3.12-3.453-2.168q-.294.468-.6.927a47.467,47.467,0,0,1-5,6.317l-7.546-7.544A36.108,36.108,0,0,0,87.45,54.783l10.408.058c-.646,3.31-1.505,6.911-2.652,10.73a111.329,111.329,0,0,1-4.181,11.55l3.453,2.168a52.141,52.141,0,0,0,5.2-12.729C105.841,42.87,93.086,21.857,87.54,16.165Zm-11.9,9.007A36.371,36.371,0,0,0,67.6,19.6a35.968,35.968,0,0,0-9.551-3.266,36.583,36.583,0,0,0-5.07-.6V5.052A46.69,46.69,0,0,1,83.189,17.61ZM48.9,15.764a36.627,36.627,0,0,0-4.141.488,2.037,2.037,0,1,0,.707,4,32.656,32.656,0,0,1,13.322.356A31.307,31.307,0,0,1,69.2,25.327,33.224,33.224,0,0,1,82.208,43.657a31.649,31.649,0,0,1,1.139,8.178,32.5,32.5,0,0,1-9.729,23.531C62.077,86.526,42.839,87.3,30.506,76.989A32.392,32.392,0,0,1,45.469,20.252l-.528-3-.178-1a55.58,55.58,0,0,0-18.341,9.093q-3.771-3.773-7.546-7.546A46.68,46.68,0,0,1,48.9,5.068Zm0,83.407A46.768,46.768,0,0,1,19.53,87.04l7.554-7.554A36.194,36.194,0,0,0,48.9,88.477v10.68ZM16.028,20.712l7.554,7.556a36.26,36.26,0,0,0-8.86,22.44H4.049a46.794,46.794,0,0,1,11.979-30ZM14.791,54.783A36.174,36.174,0,0,0,21.018,72.65a36.913,36.913,0,0,0,3.156,3.983L16.628,84.18a46.734,46.734,0,0,1-12.521-29.4ZM52.981,88.5a36.2,36.2,0,0,0,21.992-8.844l7.554,7.556A46.776,46.776,0,0,1,52.981,99.175ZM87.532,50.708A36.194,36.194,0,0,0,78.5,28.071l7.554-7.552A46.766,46.766,0,0,1,98.2,50.708Z" transform="translate(0 -1)" fill="#89b1cc"/>
    <path id="Path_311" data-name="Path 311" d="M180.956,190.5c0-.953-1.123-1.211-1.887-1.211s-1.885.258-1.885,1.211v17.082c0,1.661-.492,3.421-2.118,4.167a5.3,5.3,0,0,1-5.316-.564c-1.223-1.123-1.3-2.99-1.3-4.649q.012-7.79.026-15.581a1.963,1.963,0,0,0-.166-.971c-.336-.6-1.151-.666-1.833-.65s-1.467.142-1.711.761a1.725,1.725,0,0,0-.078.64q0,7.842.02,15.681c0,2.214.06,4.6,1.4,6.365,2.015,2.668,6.195,3.162,9.239,2.478a7.26,7.26,0,0,0,4.087-2.374,8.313,8.313,0,0,0,1.533-5.3Z" transform="translate(-131.718 -151.607)" fill="#89b1cc"/>
    <path id="Path_312" data-name="Path 312" d="M266.792,202.173l-6.157,10.534c-1.095,1.875,2.37,3.539,3.417,1.745l5.2-9.469,5.268,9.469c1.037,1.863,4.489.148,3.382-1.745l-6.159-10.534,5.978-10.466c1.2-2.116-2.356-3.635-3.489-1.565l-4.984,9.111-4.912-9.111c-1.1-2.048-4.771-.61-3.525,1.565Z" transform="translate(-208.299 -151.498)" fill="#89b1cc"/>
  </g>
</svg>
